<?xml version="1.0" encoding="UTF-8"?>
<svg id="Layer_2" data-name="Layer 2" xmlns="http://www.w3.org/2000/svg" viewBox="0 0 40 40.19">
  <defs>
    <style>
      .cls-1, .cls-2 {
        fill: none;
        stroke: #fff;
        stroke-linecap: round;
        stroke-linejoin: round;
      }

      .cls-2 {
        stroke-width: 4px;
      }
    </style>
  </defs>
  <g id="Layer_2-2" data-name="Layer 2">
    <g>
      <path class="cls-2" d="M32.06,20.13v14.06c0,2.21-1.79,4-4,4H6c-2.21,0-4-1.79-4-4V12.13c0-2.21,1.79-4,4-4h13.9"/>
      <g>
        <line class="cls-2" x1="32.06" y1="2" x2="32.06" y2="14.05"/>
        <line class="cls-2" x1="26.12" y1="8.02" x2="38" y2="8.02"/>
      </g>
    </g>
    <g>
      <circle class="cls-1" cx="17.33" cy="23.16" r="2.78"/>
      <path class="cls-1" d="M25.95,24.78v-3.25h-2.61c-.14-.52-.35-1.02-.61-1.48l1.84-1.84-2.3-2.3-1.84,1.84c-.46-.26-.96-.47-1.48-.62v-2.61h-3.25v2.61c-.52,.14-1.02,.35-1.48,.62l-1.84-1.84-2.3,2.3,1.84,1.84c-.26,.46-.47,.96-.61,1.48h-2.61v3.25h2.61c.14,.52,.35,1.02,.61,1.48l-1.84,1.84,2.3,2.3,1.84-1.84c.46,.26,.96,.47,1.48,.62v2.61h3.25v-2.61c.52-.14,1.02-.35,1.48-.62l1.84,1.84,2.3-2.3-1.84-1.84c.26-.46,.47-.96,.61-1.48h2.61Z"/>
    </g>
  </g>
</svg>